<?xml version="1.0" encoding="UTF-8" standalone="no"?>
<svg
   xmlns:dc="http://purl.org/dc/elements/1.1/"
   xmlns:cc="http://creativecommons.org/ns#"
   xmlns:rdf="http://www.w3.org/1999/02/22-rdf-syntax-ns#"
   xmlns:svg="http://www.w3.org/2000/svg"
   xmlns="http://www.w3.org/2000/svg"
   viewBox="0 0 816 1056"
   height="1056"
   width="816"
   xml:space="preserve"
   id="svg2"
   version="1.1"><metadata
     id="metadata8"><rdf:RDF><cc:Work
         rdf:about=""><dc:format>image/svg+xml</dc:format><dc:type
           rdf:resource="http://purl.org/dc/dcmitype/StillImage" /></cc:Work></rdf:RDF></metadata><defs
     id="defs6" /><g
     transform="matrix(1.3333333,0,0,-1.3333333,0,1056)"
     id="g10"><g
       transform="translate(346.7233,358.991)"
       id="g12"><path
         id="path14"
         style="fill:#4d4c4e;fill-opacity:1;fill-rule:nonzero;stroke:none"
         d="M 0,0 H 15.299 L 32.175,-29.762 H 7.258 Z M 20.047,5.862 H -8.575 l 9.248,-41.42 h 43.643 z" /></g><g
       transform="translate(315.0474,347.2827)"
       id="g16"><path
         id="path18"
         style="fill:#4d4c4e;fill-opacity:1;fill-rule:nonzero;stroke:none"
         d="M 0,0 -0.25,11.708 H 14.26 Z M 8.777,-0.366 22.532,10.878 21.057,17.57 H -7.931 L -8.016,-23.849 H 0.508 L 0.133,-6.266 h 18.075 l 3.724,-17.583 h 8.244 l -5.171,23.483 z" /></g><g
       transform="translate(268.2804,323.4333)"
       id="g20"><path
         id="path22"
         style="fill:#4d4c4e;fill-opacity:1;fill-rule:nonzero;stroke:none"
         d="m 0,0 h 36.047 l 0.079,11.544 H 28.025 L 27.927,5.856 H 9.659 l 2.485,12.893 h 16.007 l 0.123,7.081 H 13.509 l 1.876,9.728 h 13.06 l -0.089,-4.937 h 7.9 L 36.328,41.42 H 9.02 Z" /></g><g
       transform="translate(258.5208,329.3301)"
       id="g24"><path
         id="path26"
         style="fill:#4d4c4e;fill-opacity:1;fill-rule:nonzero;stroke:none"
         d="m 0,0 h -25.678 l 7.444,13.076 H 3.762 Z M -8.79,29.661 H 7.328 l -20.42,-7.555 z m 0.224,-11.633 23.322,8.272 2.217,9.223 H -13.291 L -37.56,-5.897 H 7.012 l 5.865,24.39 z" /></g><g
       transform="translate(287.4205,384.5238)"
       id="g28"><path
         id="path30"
         style="fill:#4d4c4e;fill-opacity:1;fill-rule:nonzero;stroke:none"
         d="m 0,0 -20.666,4.365 2.969,5.218 H -4.889 L -5.638,6.472 h 6.936 l 1.706,8.502 h -24.895 l -8.149,-13.91 21.733,-5.691 -1.746,-7.261 H -29.92 l 2.786,4.892 h -7.628 l -6.159,-10.508 h 37.412 z" /></g><g
       transform="translate(342.1089,394.1065)"
       id="g32"><path
         id="path34"
         style="fill:#4d4c4e;fill-opacity:1;fill-rule:nonzero;stroke:none"
         d="M 0,0 -10.663,-8.089 -12.441,0 Z m -13.967,-27.087 h 7.486 l -2.991,13.588 H 7.656 l 7.703,-13.588 h 8.032 L 12.204,-7.994 H -2.435 L 7.59,-0.12 4.362,5.391 h -24.857 z" /></g><g
       transform="translate(313.4934,394.1065)"
       id="g36"><path
         id="path38"
         style="fill:#4d4c4e;fill-opacity:1;fill-rule:nonzero;stroke:none"
         d="m 0,0 0.486,-3.111 h 6.99 L 5.745,5.391 h -26.48 l -6.399,-32.478 h 39.499 l -1.885,9.254 H 2.783 l 0.581,-3.717 h -21.879 l 1.444,8.051 H 2.107 L 1.156,-7.41 h -17.135 l 1.33,7.41 z" /></g><g
       transform="translate(287.3131,424.996)"
       id="g40"><path
         id="path42"
         style="fill:#4d4c4e;fill-opacity:1;fill-rule:nonzero;stroke:none"
         d="M 0,0 H 12.163 L 12.075,-8.36 H -4.76 Z m -7.656,-13.449 h 19.677 l -0.101,-9.775 h 6.427 V 5.215 H -3.787 l -16.664,-28.439 h 7.227 z" /></g><g
       transform="translate(308.0546,401.7721)"
       id="g44"><path
         id="path46"
         style="fill:#4d4c4e;fill-opacity:1;fill-rule:nonzero;stroke:none"
         d="M 0,0 H 6.352 L 6.118,23.224 h 10.42 L 29.708,0 h 7.375 L 20.419,28.439 H 0 Z" /></g><g
       transform="translate(318.8185,446.6882)"
       id="g48"><path
         id="path50"
         style="fill:#4d4c4e;fill-opacity:1;fill-rule:nonzero;stroke:none"
         d="m 0,0 h -6.525 l 5.037,-8.882 h -22.721 l 11.383,19.993 3.667,-6.465 h 6.436 L -12.817,21.879 -33.912,-14.125 H 8.275 Z" /></g></g></svg>